# Blender v2.93.4 OBJ File: 'Techo.blend'
# www.blender.org
mtllib Techo.mtl
o Circle
v 0.000000 1.000000 -2.000000
v -1.299038 -0.500000 -2.000000
v 1.299038 -0.500000 -2.000000
v 0.000000 1.000000 2.000000
v -1.299038 -0.500000 2.000000
v 1.299038 -0.500000 2.000000
vt 0.500000 1.000000
vt 0.933013 0.250000
vt 0.066987 0.250000
vt 0.500000 1.000000
vt 0.066987 0.250000
vt 0.933013 0.250000
vn -0.0000 0.0000 -1.0000
vn -0.0000 0.0000 1.0000
vn 0.7559 0.6547 0.0000
vn 0.0000 -1.0000 -0.0000
vn -0.7559 0.6547 0.0000
usemtl None
s off
f 1/1/1 3/2/1 2/3/1
f 4/4/2 5/5/2 6/6/2
f 3/2/3 1/1/3 4/4/3 6/6/3
f 2/3/4 3/2/4 6/6/4 5/5/4
f 1/1/5 2/3/5 5/5/5 4/4/5
